# xmcd
#
# Track frame offsets: 
#        150
#        69307
#        105056
#        156942
#
# Disc length: 2666 seconds
#
# Revision: 1
# Processed by: cddbd v1.5.2PL0 Copyright (c) Steve Scherf et al.
# Submitted via: ExactAudioCopy v1.0b2
#
DISCID=230a6804
DTITLE=Emergency - Homage To Peace
DYEAR=2004
DGENRE=Jazz
TTITLE0=Emergency Theme
TTITLE1=People In Sorrow
TTITLE2=Kako Tune
TTITLE3=Infidels
EXTD=YEAR: 1970
EXTT0=
EXTT1=
EXTT2=
EXTT3=
PLAYORDER=
